<svg width="50" height="50" fill="none" xmlns="http://www.w3.org/2000/svg"><path d="M11.667 32.917c-2.758 0-5 2.242-5 5 0 2.757 2.242 5 5 5s5-2.243 5-5c0-2.758-2.243-5-5-5zm0 8.333a3.337 3.337 0 01-3.333-3.333 3.337 3.337 0 013.333-3.334A3.337 3.337 0 0115 37.917a3.337 3.337 0 01-3.333 3.333zM40 32.917c-2.758 0-5 2.242-5 5 0 2.757 2.242 5 5 5s5-2.243 5-5c0-2.758-2.242-5-5-5zm0 8.333a3.337 3.337 0 01-3.333-3.333A3.337 3.337 0 0140 34.583a3.337 3.337 0 013.333 3.334A3.337 3.337 0 0140 41.25z" fill="#747474"/><path d="M49.867 28.3l-7.5-11.667a.833.833 0 00-.701-.383h-9.167a.833.833 0 00-.833.833v20.834c0 .46.372.833.833.833h3.334v-1.667h-2.5V17.917h7.878l7.122 11.078v8.088h-4.167v1.667h5c.46 0 .833-.372.833-.833V28.75a.831.831 0 00-.132-.45z" fill="#747474"/><path d="M36.667 27.083V21.25h6.666v-1.667h-7.5a.833.833 0 00-.833.834v7.5c0 .46.373.833.833.833h12.5v-1.667H36.667zM32.5 10.417H.833A.834.834 0 000 11.25v26.667c0 .46.373.833.833.833H7.5v-1.667H1.667v-25h30v25H15.833v1.667H32.5c.46 0 .833-.373.833-.833V11.25a.833.833 0 00-.833-.833z" fill="#747474"/><path d="M5.833 33.75h-5v1.667h5V33.75zm25.834 0H17.5v1.667h14.167V33.75zm17.5 0h-3.333v1.667h3.333V33.75zm-16.667-20H3.333v1.667H32.5V13.75zm-20 23.333h-1.666v1.667h1.667v-1.667zm28.333 0h-1.667v1.667h1.667v-1.667zM15 7.083H3.333V8.75H15V7.083zm-13.333 0H0V8.75h1.667V7.083z" fill="#747474"/></svg>