<svg width="50" height="50" fill="none" xmlns="http://www.w3.org/2000/svg"><g clip-path="url(#clip0)" fill="#747474"><path d="M46.1 41.606L38.793 28.77c.74-.345 1.185-1.135 1.136-2.024l-.543-4.542 3.11-3.259c.691-.691.74-1.876.05-2.715l-3.11-3.358.64-4.592c.1-.987-.592-1.975-1.579-2.172l-4.493-.889-2.172-4C31.387.282 30.3-.113 29.314.282h-.05l-4.147 1.925L21.068.231a1.93 1.93 0 00-1.481-.148 1.948 1.948 0 00-1.136.938l-2.221 4-4.494.79c-1.036.197-1.728 1.135-1.629 2.221l.543 4.543-3.11 3.259c-.691.69-.74 1.876-.05 2.715l3.11 3.357-.64 4.592c-.1.889.443 1.728 1.283 2.074L3.886 41.606c-.197.297-.148.692 0 .988.198.296.494.494.84.494h7.9l3.604 6.27c.197.296.493.494.839.494s.691-.198.84-.494l7.06-12.047 7.06 12.195c.197.297.494.494.84.494.345 0 .69-.197.839-.494l3.604-6.418h7.9c.345 0 .691-.198.84-.494a.817.817 0 00.048-.988zM17.118 46.89l-3.06-5.283c-.198-.296-.495-.493-.84-.493H6.404l6.814-12.047 2.814.493 2.172 4c.445.938 1.531 1.333 2.518.938h.05l2.024-.938.988 1.728-6.666 11.602zm2.864-14.17h-.05l-2.172-4.098c-.296-.493-.79-.888-1.382-.938l-4.543-.84.642-4.542c.099-.592-.099-1.234-.494-1.629l-3.06-3.357 3.11-3.259c.444-.444.642-1.037.543-1.63l-.543-4.492s0-.05.05-.099l4.492-.79a1.999 1.999 0 001.383-.987l2.221-4 4.049 1.975a1.889 1.889 0 001.777 0l4.099-1.876h.049l2.172 4.098c.296.494.79.889 1.333.938l4.493.889-.642 4.542c-.098.593.1 1.234.494 1.63l3.11 3.357-3.16 3.259c-.444.444-.641 1.036-.542 1.629l.543 4.542-4.444.74a1.998 1.998 0 00-1.382.988l-2.222 4-4.049-1.975a1.888 1.888 0 00-1.777 0l-4.098 1.925zm16.787 8.394c-.346 0-.691.197-.84.493l-3.06 5.432-6.962-12.048a.795.795 0 00-.198-.345l-1.086-1.926.346-.148 4.048 1.975c.297.148.593.198.889.198.691 0 1.383-.346 1.728-.988l2.222-4 2.962-.542 6.765 11.899h-6.814z"/><path d="M34.843 17.413c0-5.43-4.443-9.874-9.875-9.874-5.43 0-9.874 4.443-9.874 9.874 0 5.432 4.443 9.875 9.874 9.875 5.432 0 9.875-4.443 9.875-9.875zm-9.875 7.9c-4.344 0-7.9-3.555-7.9-7.9 0-4.344 3.556-7.9 7.9-7.9 4.345 0 7.9 3.556 7.9 7.9 0 4.345-3.555 7.9-7.9 7.9z"/></g><defs><clipPath id="clip0"><path fill="#fff" d="M0 0h50v50H0z"/></clipPath></defs></svg>