<svg width="50" height="50" fill="none" xmlns="http://www.w3.org/2000/svg"><g clip-path="url(#clip0)" fill="#747474"><path d="M42.484 16.708H.716a.715.715 0 00-.716.716v20.048c0 .395.32.715.714.716h28.402a.716.716 0 000-1.432H1.433V18.14h40.334v1.79c0 .395.32.715.714.716h.002c.395 0 .715-.32.716-.714v-2.508a.715.715 0 00-.714-.716zm-4.857-3.324L4.214 5.867a.719.719 0 00-.856.543l-1.67 7.518a.716.716 0 101.397.31L4.6 7.421l32.713 7.36a.716.716 0 00.314-1.397zM33.57 9.242L13.522.89a.718.718 0 00-.92.341l-1.67 3.342a.718.718 0 101.285.641v.002l1.37-2.743 19.43 8.095a.718.718 0 00.553-1.325z"/><path d="M34.076 20.05h-6.63a.716.716 0 000 1.431h6.63a.716.716 0 000-1.431zm-13.313.047a7.35 7.35 0 00-7.35 7.351 7.358 7.358 0 007.35 7.35 7.35 7.35 0 100-14.7zm0 13.365a6.014 6.014 0 01-6.014-6.014 6.021 6.021 0 016.014-6.014 6.014 6.014 0 010 12.028zm20.049-11.026c-4.428 0-9.189 1.046-9.189 3.341v20.048c0 2.296 4.761 3.341 9.189 3.341 4.427 0 9.188-1.045 9.188-3.34v-20.05c0-2.295-4.761-3.341-9.188-3.341zm7.518 23.377c-.127.463-2.632 1.683-7.518 1.683-4.887 0-7.392-1.22-7.518-1.67v-1.314c1.777.895 4.713 1.313 7.518 1.313 2.804 0 5.74-.422 7.518-1.314v1.302zm0-3.342c-.127.464-2.632 1.684-7.518 1.684-4.887 0-7.392-1.22-7.518-1.671V41.17c1.777.895 4.713 1.313 7.518 1.313 2.804 0 5.74-.422 7.518-1.314v1.301zm0-3.341c-.127.464-2.632 1.683-7.518 1.683-4.887 0-7.392-1.22-7.518-1.67v-1.314c1.777.896 4.713 1.313 7.518 1.313 2.804 0 5.74-.421 7.518-1.314v1.302zm0-3.341c-.127.463-2.632 1.683-7.518 1.683-4.887 0-7.392-1.22-7.518-1.67v-1.314c1.777.896 4.713 1.313 7.518 1.313 2.804 0 5.74-.422 7.518-1.314v1.302zm0-3.342c-.127.464-2.632 1.684-7.518 1.684-4.887 0-7.392-1.22-7.518-1.671v-1.313c1.777.891 4.713 1.313 7.518 1.313 2.804 0 5.74-.422 7.518-1.314v1.301zm0-3.34c-.127.463-2.632 1.682-7.518 1.682-4.887 0-7.392-1.22-7.518-1.67v-1.314c1.777.892 4.713 1.314 7.518 1.314 2.804 0 5.74-.422 7.518-1.314v1.301zm-7.518-1.659c-4.88 0-7.384-1.216-7.518-1.656v-.005c.134-.465 2.639-1.68 7.518-1.68 4.845 0 7.35 1.198 7.518 1.67-.167.473-2.673 1.671-7.518 1.671z"/><path d="M14.08 33.414H7.766L4.772 30.14v-5.43l3.308-3.23h6.001a.716.716 0 100-1.431H7.788a.716.716 0 00-.501.203l-3.732 3.64a.897.897 0 00-.215.584v5.94c0 .18.067.351.187.483l3.394 3.713a.716.716 0 00.529.233h6.63a.716.716 0 000-1.432zm7.101-6.801h-.835c-.26 0-.418-.146-.418-.21 0-.063.158-.208.418-.208h2.088a.836.836 0 000-1.67H21.6a.835.835 0 00-1.67 0v.037a1.945 1.945 0 00-1.671 1.838 1.995 1.995 0 002.088 1.883h.835c.26 0 .418.146.418.21 0 .063-.158.208-.418.208h-2.088a.835.835 0 000 1.67h.835a.835.835 0 001.671 0v-.037a1.945 1.945 0 001.67-1.838 1.995 1.995 0 00-2.088-1.883z"/></g><defs><clipPath id="clip0"><path fill="#fff" d="M0 0h50v50H0z"/></clipPath></defs></svg>