<svg width="50" height="50" fill="none" xmlns="http://www.w3.org/2000/svg"><path d="M25.001 3.907a.974.974 0 00-.976.976c0 .502.379.92.878.97a.974.974 0 001.074-.97.974.974 0 00-.976-.976z" fill="#747474"/><path d="M44.531 5.86A4.888 4.888 0 0139.648.976.977.977 0 0038.672 0H11.328a.977.977 0 00-.976.977 4.888 4.888 0 01-4.883 4.882.977.977 0 00-.977.977v15.936c0 12.42 8.095 23.549 20.227 27.187a.981.981 0 00.562 0c11.869-3.56 20.227-14.495 20.227-27.187V6.837a.977.977 0 00-.977-.977zm-.976 16.912c0 11.665-7.444 21.767-18.555 25.23a26.405 26.405 0 01-18.555-25.23V7.744c2.99-.43 5.36-2.8 5.79-5.79h25.53c.43 2.99 2.8 5.36 5.79 5.79v15.03z" fill="#747474"/><path d="M41.017 9.032a8.797 8.797 0 01-4.541-4.541.977.977 0 00-.895-.585h-6.677a.977.977 0 000 1.953h6.06a10.735 10.735 0 004.684 4.685v12.229c0 9.556-5.737 17.802-14.648 21.103-8.911-3.3-14.648-11.547-14.648-21.103V10.544a10.736 10.736 0 004.684-4.685h6.06a.977.977 0 000-1.953h-6.677a.977.977 0 00-.895.585 8.797 8.797 0 01-4.54 4.541.977.977 0 00-.586.895v12.846c0 10.47 6.476 19.595 16.276 23.063a.974.974 0 00.652 0c9.792-3.466 16.276-12.585 16.276-23.063V9.927a.977.977 0 00-.585-.895z" fill="#747474"/><path d="M25 14.258c-4.846 0-8.79 3.943-8.79 8.789s3.944 8.789 8.79 8.789c4.846 0 8.79-3.943 8.79-8.79 0-4.845-3.944-8.788-8.79-8.788zm0 15.625a6.844 6.844 0 01-6.836-6.836A6.844 6.844 0 0125 16.21a6.844 6.844 0 016.836 6.836A6.844 6.844 0 0125 29.883z" fill="#747474"/><path d="M29.597 20.403a.977.977 0 00-1.381 0l-4.193 4.192-1.262-1.262a.977.977 0 00-1.381 1.381l1.953 1.953a.974.974 0 001.381 0l4.883-4.883a.977.977 0 000-1.38z" fill="#747474"/></svg>