<svg width="50" height="50" fill="none" xmlns="http://www.w3.org/2000/svg"><g clip-path="url(#clip0)" fill="#747474"><path d="M22.498 32.653a.978.978 0 00-1.382-1.382.978.978 0 001.382 1.382zm.354-22.985v1.954a5.858 5.858 0 005.859 5.859 5.866 5.866 0 005.86-5.86V9.668a.976.976 0 100-1.953h-1.953a.977.977 0 100 1.953v1.954a3.906 3.906 0 11-7.813 0V9.667a.976.976 0 100-1.953h-1.953a.977.977 0 100 1.953z"/><path d="M11.35 47.944a.973.973 0 001.38 0l2.999-3a4.52 4.52 0 001.311-3.664l1.076-1.038a4.531 4.531 0 013.158-1.276h12.858a8.74 8.74 0 006.13-2.491.922.922 0 00.069-.075l8.748-10.505a3.912 3.912 0 00-.464-5.507 3.917 3.917 0 00-5.481.438l-.945.977V2.734a.977.977 0 00-.977-.976H16.114a.977.977 0 00-.977.976v21.88c-3.782.794-6.781 3.142-8.397 6.573a4.51 4.51 0 00-3.438 1.326l-3.014 3a.977.977 0 00-.002 1.382L11.35 47.943zM40.236 3.71v20.111l-2.826 2.922a3.924 3.924 0 00-3.034-1.45H23.053a.54.54 0 01-.198-.042 12.62 12.62 0 00-4.788-.935c-.327 0-.652.012-.976.033V3.71h23.145zM16.254 26.399c1.975-.286 3.95-.118 5.867.663.304.123.618.185.932.185h11.323c1.06 0 1.953.864 1.953 1.953a1.955 1.955 0 01-1.953 1.954H25.88a.977.977 0 000 1.953h8.496a3.91 3.91 0 003.872-4.42 17385.808 17385.808 0 006.354-6.573 1.96 1.96 0 012.754-.233c.822.696.927 1.93.227 2.759l-8.72 10.47a6.795 6.795 0 01-4.731 1.903H21.274a6.473 6.473 0 00-4.515 1.823l-.43.416a4.545 4.545 0 00-.6-.74l-5.998-5.997a4.559 4.559 0 00-1.077-.797c1.492-2.943 4.156-4.819 7.6-5.32zM4.68 33.895a2.59 2.59 0 013.669 0l5.999 6a2.59 2.59 0 010 3.668l-2.31 2.309-9.68-9.666 2.322-2.31z"/></g><defs><clipPath id="clip0"><path fill="#fff" d="M0 0h50v50H0z"/></clipPath></defs></svg>