<svg height="512" width="512" xmlns="http://www.w3.org/2000/svg"><path d="M272 104h-32a88.1 88.1 0 00-88 88v128a88.127 88.127 0 0076.57 87.26 7.868 7.868 0 003.36.74H272a88.1 88.1 0 0088-88V192a88.1 88.1 0 00-88-88zm72 216a72.083 72.083 0 01-72 72h-32a72.083 72.083 0 01-72-72v-72h176zm0-88H168v-40a72.083 72.083 0 0172-72h32a72.083 72.083 0 0172 72z"/><path fill="red" d="M240 216h32a8 8 0 008-8v-64a8 8 0 00-8-8h-32a8 8 0 00-8 8v64a8 8 0 008 8zm8-64h16v48h-16zm-40-64h96a8 8 0 006.4-12.8l-48-64a8 8 0 00-12.8 0l-48 64A8 8 0 00208 88zm48-58.667L288 72h-64zM304 424h-96a8 8 0 00-6.4 12.8l48 64a8 8 0 0012.8 0l48-64A8 8 0 00304 424zm-48 58.667L224 440h64z"/></svg>